<svg width="175" height="30" viewBox="0 0 175 30" fill="none" xmlns="http://www.w3.org/2000/svg">
<path d="M0 15C0 6.71573 6.72595 0 15.0228 0H47.6256C55.9225 0 62.6484 6.71573 62.6484 15C62.6484 23.2843 55.9225 30 47.6256 30H15.0228C6.72595 30 0 23.2843 0 15Z" fill="#61DAFB"/>
<path d="M10.5732 29.3311L10.5479 12.0479C10.5479 9.3883 11.8798 8.05851 14.5434 8.05851H26.5097L24.512 14.0426H16.5411V30H15.2376H15.0228H14.863L14.8093 29.9985L14.7032 29.9967L14.6034 29.9943L14.4125 29.9878L14.2689 29.9814L14.1266 29.9737L13.9838 29.9647L13.8417 29.9536L13.6996 29.9426C13.6996 29.9426 13.532 29.9265 13.4247 29.9161C11.9114 29.7694 10.5732 29.3311 10.5732 29.3311Z" fill="white"/>
<path d="M28.5274 30V12.0479C28.5274 9.3883 29.8592 8.05851 32.5228 8.05851H48.5245C51.1882 8.05851 52.52 9.3883 52.52 12.0479L52.2603 29.2726L52.1526 29.3069L52.0243 29.3467L51.9087 29.3815L51.7808 29.4188L51.6643 29.4517L51.5448 29.4844L51.429 29.5151L51.3014 29.5477L51.188 29.5757L51.059 29.6065L50.9593 29.6294L50.812 29.6619L50.698 29.686L50.5652 29.713L50.4443 29.7364L50.3199 29.7594L50.1969 29.7811L50.073 29.8019L49.9504 29.8215L49.8247 29.8404L49.6811 29.8607L49.5653 29.8761L49.4619 29.8891L49.3115 29.9066L49.2027 29.9183L49.0775 29.9308L48.9041 29.9464L48.7443 29.959L48.5892 29.9696L48.4414 29.9783L48.3463 29.983L48.2348 29.9879L48.1238 29.9919L47.894 29.9977L47.7854 30H47.4383H46.5268L46.5068 14.0426H34.5205V30H28.5274Z" fill="white"/>
<path d="M91.0959 26.0106C91.0959 28.6702 89.7641 30 87.1005 30H71.1187C68.4551 30 67.1233 28.6702 67.1233 26.0106V12.0479C67.1233 9.3883 68.4551 8.05851 71.1187 8.05851H83.105L81.1073 14.0426H73.1164V24.016H85.1027V0.0797872H91.0959V26.0106Z" fill="white"/>
<path d="M115.068 8.05851C117.732 8.05851 119.064 9.3883 119.064 12.0479V18.0319C119.064 20.6915 117.732 22.0213 115.068 22.0213H103.082V16.0372H113.071V14.0426H101.084V24.016H115.049L113.091 30H99.0868C96.4231 30 95.0913 28.6702 95.0913 26.0106V12.0479C95.0913 9.3883 96.4231 8.05851 99.0868 8.05851H115.068Z" fill="white"/>
<path d="M136.624 24.016L143.017 8.05851H149.01L140.22 30H131.849L123.059 8.05851H129.053L135.445 24.016H136.624Z" fill="white"/>
<path d="M173.022 14.0226H157.021V16.0372H171.005C173.668 16.0372 175 17.3604 175 20.0066V25.9907C175 28.6503 173.668 29.9801 171.005 29.9801H151.027V24.016L169.007 23.996V22.0013H155.023C152.359 22.0013 151.027 20.6782 151.027 18.0319V12.0479C151.027 9.375 152.359 8.03856 155.023 8.03856H175L173.022 14.0226Z" fill="white"/>
</svg>
